<mxfile host="app.diagrams.net" agent="Mozilla/5.0 (X11; Linux x86_64) AppleWebKit/537.36 (KHTML, like Gecko) Chrome/131.0.0.0 Safari/537.36" version="24.8.3">
  <diagram name="Page-1" id="z36-_lBTOc4J1yEwmLLt">
    <mxGraphModel grid="1" page="1" gridSize="10" guides="1" tooltips="1" connect="1" arrows="1" fold="1" pageScale="1" pageWidth="827" pageHeight="1169" math="0" shadow="0">
      <root>
        <mxCell id="0" />
        <mxCell id="1" parent="0" />
        <mxCell id="V600r99K4r73Q4ow4gqZ-7" value="" style="rounded=1;whiteSpace=wrap;html=1;fillColor=#f5f5f5;fontColor=#333333;strokeColor=#666666;dashed=1;dashPattern=8 8;" vertex="1" parent="1">
          <mxGeometry x="280" y="160" width="400" height="470" as="geometry" />
        </mxCell>
        <mxCell id="V600r99K4r73Q4ow4gqZ-8" value="&lt;font style=&quot;font-size: 15px;&quot; face=&quot;Nunito&quot; data-font-src=&quot;https://fonts.googleapis.com/css?family=Nunito&quot;&gt;API Gateway&lt;/font&gt;" style="rounded=1;whiteSpace=wrap;html=1;rotation=90;fillColor=#d5e8d4;strokeColor=#82b366;dashed=1;" vertex="1" parent="1">
          <mxGeometry x="545" y="340" width="170" height="40" as="geometry" />
        </mxCell>
        <mxCell id="V600r99K4r73Q4ow4gqZ-11" style="edgeStyle=orthogonalEdgeStyle;rounded=0;orthogonalLoop=1;jettySize=auto;html=1;entryX=0.5;entryY=1;entryDx=0;entryDy=0;startArrow=classic;startFill=1;fillColor=#f5f5f5;strokeColor=#666666;" edge="1" parent="1" source="V600r99K4r73Q4ow4gqZ-10" target="V600r99K4r73Q4ow4gqZ-8">
          <mxGeometry relative="1" as="geometry" />
        </mxCell>
        <mxCell id="V600r99K4r73Q4ow4gqZ-10" value="Web Application" style="rounded=1;whiteSpace=wrap;html=1;fillColor=#ffe6cc;strokeColor=#d79b00;dashed=1;" vertex="1" parent="1">
          <mxGeometry x="460" y="250" width="85" height="70" as="geometry" />
        </mxCell>
        <mxCell id="V600r99K4r73Q4ow4gqZ-13" style="edgeStyle=orthogonalEdgeStyle;rounded=0;orthogonalLoop=1;jettySize=auto;html=1;entryX=0.5;entryY=1;entryDx=0;entryDy=0;fillColor=#f5f5f5;strokeColor=#666666;startArrow=classic;startFill=1;" edge="1" parent="1" source="V600r99K4r73Q4ow4gqZ-12" target="V600r99K4r73Q4ow4gqZ-8">
          <mxGeometry relative="1" as="geometry" />
        </mxCell>
        <mxCell id="V600r99K4r73Q4ow4gqZ-41" style="edgeStyle=orthogonalEdgeStyle;rounded=0;orthogonalLoop=1;jettySize=auto;html=1;entryX=1;entryY=0.5;entryDx=0;entryDy=0;startArrow=classic;startFill=1;fillColor=#f5f5f5;strokeColor=#666666;" edge="1" parent="1" source="V600r99K4r73Q4ow4gqZ-12" target="V600r99K4r73Q4ow4gqZ-39">
          <mxGeometry relative="1" as="geometry" />
        </mxCell>
        <mxCell id="V600r99K4r73Q4ow4gqZ-45" style="edgeStyle=orthogonalEdgeStyle;rounded=0;orthogonalLoop=1;jettySize=auto;html=1;exitX=0;exitY=0.5;exitDx=0;exitDy=0;entryX=1;entryY=0.5;entryDx=0;entryDy=0;fillColor=#f5f5f5;strokeColor=#666666;startArrow=classic;startFill=1;" edge="1" parent="1" source="V600r99K4r73Q4ow4gqZ-12" target="V600r99K4r73Q4ow4gqZ-42">
          <mxGeometry relative="1" as="geometry" />
        </mxCell>
        <mxCell id="V600r99K4r73Q4ow4gqZ-12" value="API" style="rounded=1;whiteSpace=wrap;html=1;fillColor=#ffe6cc;strokeColor=#d79b00;dashed=1;" vertex="1" parent="1">
          <mxGeometry x="460" y="400" width="85" height="70" as="geometry" />
        </mxCell>
        <mxCell id="V600r99K4r73Q4ow4gqZ-14" value="&lt;font face=&quot;Nunito&quot;&gt;Object&lt;/font&gt;&lt;div&gt;&lt;font face=&quot;Nunito&quot;&gt;Storage&lt;/font&gt;&lt;/div&gt;" style="shape=cylinder3;whiteSpace=wrap;html=1;boundedLbl=1;backgroundOutline=1;size=15;fillColor=#f8cecc;strokeColor=#b85450;" vertex="1" parent="1">
          <mxGeometry x="477.5" y="547.5" width="50" height="70" as="geometry" />
        </mxCell>
        <mxCell id="V600r99K4r73Q4ow4gqZ-16" value="Data&lt;div&gt;Persist&lt;/div&gt;" style="shape=cylinder3;whiteSpace=wrap;html=1;boundedLbl=1;backgroundOutline=1;size=15;fillColor=#f8cecc;strokeColor=#b85450;" vertex="1" parent="1">
          <mxGeometry x="380" y="547.5" width="50" height="70" as="geometry" />
        </mxCell>
        <mxCell id="V600r99K4r73Q4ow4gqZ-17" style="edgeStyle=orthogonalEdgeStyle;rounded=0;orthogonalLoop=1;jettySize=auto;html=1;entryX=0.5;entryY=0;entryDx=0;entryDy=0;entryPerimeter=0;fillColor=#f5f5f5;strokeColor=#666666;startArrow=classic;startFill=1;" edge="1" parent="1" source="V600r99K4r73Q4ow4gqZ-12" target="V600r99K4r73Q4ow4gqZ-14">
          <mxGeometry relative="1" as="geometry" />
        </mxCell>
        <mxCell id="V600r99K4r73Q4ow4gqZ-18" style="edgeStyle=orthogonalEdgeStyle;rounded=0;orthogonalLoop=1;jettySize=auto;html=1;entryX=0.5;entryY=0;entryDx=0;entryDy=0;entryPerimeter=0;fillColor=#f5f5f5;strokeColor=#666666;startArrow=classic;startFill=1;" edge="1" parent="1" source="V600r99K4r73Q4ow4gqZ-12" target="V600r99K4r73Q4ow4gqZ-16">
          <mxGeometry relative="1" as="geometry">
            <Array as="points">
              <mxPoint x="502" y="510" />
              <mxPoint x="405" y="510" />
            </Array>
          </mxGeometry>
        </mxCell>
        <mxCell id="V600r99K4r73Q4ow4gqZ-21" style="edgeStyle=orthogonalEdgeStyle;rounded=0;orthogonalLoop=1;jettySize=auto;html=1;entryX=0.5;entryY=0;entryDx=0;entryDy=0;fillColor=#f5f5f5;strokeColor=#666666;startArrow=classic;startFill=1;" edge="1" parent="1" source="V600r99K4r73Q4ow4gqZ-20" target="V600r99K4r73Q4ow4gqZ-8">
          <mxGeometry relative="1" as="geometry" />
        </mxCell>
        <mxCell id="V600r99K4r73Q4ow4gqZ-20" value="" style="sketch=0;aspect=fixed;pointerEvents=1;shadow=0;dashed=0;html=1;strokeColor=none;labelPosition=center;verticalLabelPosition=bottom;verticalAlign=top;align=center;fillColor=#000000;shape=mxgraph.azure.computer" vertex="1" parent="1">
          <mxGeometry x="710" y="338.75" width="47.22" height="42.5" as="geometry" />
        </mxCell>
        <mxCell id="V600r99K4r73Q4ow4gqZ-25" value="" style="shape=image;verticalLabelPosition=bottom;labelBackgroundColor=default;verticalAlign=top;aspect=fixed;imageAspect=0;image=https://min.io/resources/img/logo/MINIO_Bird.png;" vertex="1" parent="1">
          <mxGeometry x="520" y="530" width="22.28" height="45" as="geometry" />
        </mxCell>
        <mxCell id="V600r99K4r73Q4ow4gqZ-28" value="" style="shape=image;verticalLabelPosition=bottom;labelBackgroundColor=default;verticalAlign=top;aspect=fixed;imageAspect=0;image=data:image/png,iVBORw0KGgoAAAANSUhEUgAAAMgAAADICAYAAACtWK6eAAAdQklEQVR4nOy9eVhUV7r2fRdUlQqlYRYES1FARgGNoBGTYOcYTUwn2mmNQ9IOJ9pXJ3Yn0Yx9vpPOlx7y5k1nOOmko/GocYhRVDRqFBRBRRRUQGWSmQJkkgKhKHXvGt6LUhwZatxr76r1+ytF7drrjrXvWutZw/OIQbEdvt6j4erqBT+fKLi6DoKnWwQAZ/j6+EEq8btz3ciAYRDpvaGHK0QQQY8bgOgqmppbwTA9V3WiobkMLAuousqhbO9Aa1sxutTtUNQXkvpftHdEpAXYBXL/cMgDouDrHQlf7xB4uAfB1yeKUw0qdSUamyrQ2HwZivpLaGi+gNr6C2BYLac67AxqEFPxcPeEfMRjCAqcDLl/HIJGxwOiwaRl9UlD8zlUVOWgvOo0aq5koam5lrQkIUENMhBSySCEhzyJoMAnEB3xLDzdw0hLsohOlQLFZUdRWJqK4ssZUKmVpCXxGWqQ3vBw90J0+AsID5mNiJDpvO4hLKWm7iQuFKYir2A7mloUpOXwDWqQHjzcRiAudhFiIuZCHjCRtBwiKNtqkJP3I/ILdxniGIqDG0QiGYz42OfwWNxSjA54irQcXtHadgGZORuQmb0DXY47DHNMg/h6h2B6wgpDjyGVepKWw3OuI78gGWdy1+FiURZpMVzjWAaJjngcv0p4H0GBvyItRZA0Nl/Eiex/Iitnp6NMH9u/QVxcgMiQhXh6+mrDgh3FclRdjTh87DPkFqxH+zU1aTm2xH4NIpVIkRC3EjMT34VM5kNajl3CMF3IzF6Pw+l/g0rdTlqOLbA/g3T3GPGxL2NW4n9DJhtFWo5DwDDXcDLnU6Sd/MbeehT7MsikmGcwa/on8PUJJS3FIVF1XcXhY/8/TuZ8Z9gzZgfYh0F8vcdhwdyvERz4JGkpFEMwX4Jd+/+AorJM0lIsRdgGkUpc8OunP8D0hD8BGERaDuUB8gt2YNeBNVC2N5GWYi7CNcjUSb/B8zP/BzJXb9JSKP3AMGqkZX6ClPT/K8SpYeEZxN3NC4vmrEf4uGdIS6GYQGNzATbtWARFfTFpKabgTFqAScTFvIDXlx2A3/Bo0lIoJiJz9UFC/BI4OQGlFYKJTYTRg7i6umDhnO8QG/kSaSkUK6Coy8LGHa8IYfcw/w0ydvSjWDp/Ozzc6ZqGPcEwXdi2ZznO5u8hLaU/+D3Empn4Fpa+tB1DhriRlkKxMs7OUsRGvggvjxEoLk2HVsfLhRN+9iBSiQtWLN6E8HEvkJZC4YCG5lx8s2EelO28G3LxzyC+3nK8vuwgPNzHkZZC4RCGacXaLb9FMb8WF/k1xAoLTsAbr6ZDJvMnLYXCMc7OLoifsAjq602ors0lLacH/hhk6qQF+M9FOw3/UBRHxQkR457F4EFiFJdlkBYD3hhkwQsfYvaMz3mjh0KWMaOmIWRsOHIvHiIdvJN/IBfO+RbTJr9BWgaFZ3i6hyMoMAHnLyaRNAm5IF0qkeD15f9G0OhXiGmg8J+rbafxxdq5aGtvJdE8GYNIJSK8tvQAgsf8B5H2KcJC2VaKz7+bAuW1Tq6b5n6IZTDHsv9F8Jg5nLdNESZDhngiOjIR+YVJuHGD4bJpbnuQ7mHVa8v2IjiQ9hwU02ltq8AXax+Hsr2FqyaduGrIQHfMQc1BMRdP97F4c2UyXF04WwrgziAL53xLA3KKxXi6x2HlywcM25E4gJsYZOELHyKBTuVSrISHuxxBo6Nx+vxPtm7K9gaZGrcAs//jc5u3Q3EsPNyD8cjQYbhUcsSWzdjWIGHBCVi+aCdEPFiQpNgf8oDJ0GhaUFF9zlZN2O7BHe4tN2w8FNO9VRQbEjp2JuobTqOxpcoWt7dNkN4dQK1adhBS6TCb3J9CuYNIhCUv7cJw79G2uLttDPLq4k30PAeFM6RSV6xa9rMtZrasb5Cnn3wLEfQkIIVjPNxDsWT+Omvf1roxiCHBwkvbrXpPCsVYfH0ioL6uQHXtBWvd0no9iMzFxZB9hEIhyfNPf4WR/lYb3lvPIAvmfkdT81CII5W6YOm8bZBKrFKZ2DpDrEkxL2DW9I+sci8KxVJksuGQSEQoLku39FaWG8TDzdswpUvPklP4xJhRCaiq+QUtygZLbmP5EGvBnO9ppVgKL1k4d6ulU7+W9SBT417Er6a9Z9E9KBRbMWSIB2QuzrhUcszcW5jfg3Q78/kZX5n9eQqFCxImrzFUIDMT8w3y6xl/hkxGi9dQ+I4IC+d8Ye6HzRtidTtyyUv/C0BsbsMUCmd4uI9By9VC1DeaXLzHvAd84ZyvaU1Ay4n1Go5/Pz7D4X5kNDodPj6fpU2prdJz1uiLs79EfuFhMKxJZapN/3LiYp5B0BhaTdYK/ClqovMEb1/+JRC3IWXtSixOO6DJu9rEnTlgWBvxxXMz3sLug3815WOmxSAuLsDMxE9M1UZ5GK/BQ/BScDi3STMIs64oXzdp9w8s5+boYVr8Gvh4e5nyEdO+oPjYl+E7nBbptwIrwmOcnESO0Xlcu3kT81L3al4/eUSr1mjICZFKXTAr8c+mfMR4g0glUsxM/NAcXZT7GeIsxuuRExziGPLRumrdhKSN7N6qMjK9xoPEx76K4d5G7xk03iAJcSsxVCY3VxflLktCo5y8htj3zhw1y+IPJ1K0zxxM0tZ2cZ4xtB9EUsxK/IuxVxtnkFuxx7uWyKLc5TU77z0KlC36R3dtYtcXX9SR1tIrcbELETDCqFjEOINEhiyETOZjqS4KMCcwWBTi5kFahs34LD9bO3XPVk15RztpKf0gEmFyrFFbpIwzyNOJqy2VRLnFqqiJdjlzVavqwKwDOzUfZJ/QXdcSDMSNJSF+OWQuA1ZPHvjLejTmcfgNj7KWLkcmzscPCX4j7c4gyZWluglJm9i0+hp+BOLGIJW6IjFhyUCXDfxlPR73gbU0OTpvjn/UrmIPFctg8dH9mvlH9mmvMTdJyzGdaXFvQyLpd7G8f4P4eocgaMx0a+tyRIIfccdvxobaTe9x4kqtLmbnRnZnRYlweo0Hkcm8MXXSi/1d0v8XlpiwwtqaHJU/RMTahTkYrRb/nXNS+9T+n7QKVQdpOZYTP6HfZ7zv7kUqGYz42EW20ORouIjFWBo6XvDDq+qOa5iXupfNb20mLcV6jApIgHxEKBRXSnp7u+9ftUmxz9GjtNZhWeh4JxeJhLQMi9hyuUAXk7TBvszRQ0Lc7/p6q2+DTJ201FZ6HAkRgNXRcYLtPRq6VJj9yy7N8oxDZPdR2ZK4ib+DRNKrF3o3iIfbCIwe+ZStdTkCLwWFifxlQ0nLMIufq8oM+6hSuTy3QQKpxAsRIc/09lbvBomLWWxrTY7CqqiJgus91CyL1VnHtC+m7tW23rxBWg43TOr9me89SI+JpCWarUCCr7/oUR8/Qe1pv9jarF98dL+mpF1JWgq3RIx7GlIJwLD3/fnhHsTDzQvygIkcSrNb3hg/SVBTu5/mndEmJG9zPHPg9sp6WPCMB//88BcYE0FLF1iBUDcP/DowWBAGqem8hil7Nmv+K+ek7oYQ9lHZipjIh579h7/A8JDZXOmxZ4Qyc7WzvNiwIn6+hdAxWD4R8fCzf79BpJLBCA+hW0ssxGvwEMwLCuN179HJMFhwZJ9mcdoBbZeGJS2HH8hkvggaHXvvn+7/EsNDngBEVkkb78j8MWqi0xAxf7P5ZNQrDIt+uytLaa/xIOEhM+99eb9BgkbTdD4W4iwS4T/Donk5vNLp9fj43CntjAM7tLUqPh2D5RFjRz9x78v7f+ZiIntdLKEYz8LgcBEfz5sXKa/qF6ft1xQor5KWwm+CxyTC1cUFXWpDgrm7PYiHmyc83MNIarMHVkfH8W5s9eWFs9rHkrdQcxiHCEGjp/a8uGsQuf9jpBTZC9NHyEXhHiblJbMpLdfVePZgkuadMxk6u91HZQtGBdzxwt1fu6DRk0npsRfemzCFNzNXhxSVuhUZh7RN101KRUvB/V64axC5fxwpPfZAuLsnnvSXEzeImmXxQfZx7beFefxMuSME5AF3vHDXIGPHxJPSYw+8ExNPfObqdGO97uW0A/Zx0o8kUulQjBwRjtorRbd+8eQjwiECXf8wEz8XV+KJqP9+Pkv7xL4fqTmsxagAw4LhrR5kZABN62MBb0VPIpaIuqbzGn6XdlCT1VRPF/2sidx/PIBttwzi6x1JWo9QkYklxM6b/1RWpPv9iRT7PelHkuG3PHHbID5mFzl0dJaGjncaJuW22FYXy2JZ+kFNMl8yptsjfj4huGMQv+FjSesRKu/Gchucp9ZW6VYeP6yt71Jx2azjIZONgtsjt7PKebjRGMQM5gQGi3xcXDlpS82y+OjcKe0XF8/S6VuuGCaLEsPXezRpHUKFq0TUBcoWwzHYorZWLpqj9DDce7QYMlf+7I0QEFwlov6uME/37ukMrSAyptsbMlcvMXx96PDKDGxdBKdZ3YUVxw9rflFU0kCcFH4+UWK4utAFQhMJfsQdC2y4MLi78rJuRcZhbSfL2KoJijG4ugwSw9M9grQOoWGrRNTdgXh3ryHojOn2hKd7pNjkUtAOjsegwTZZGDzf0qBffPSApoLXpcscDicxRvr7k1YhJJaGRlk1EbVer8ffc09rPz6fpdPpacfBK+QjR4ghwnDSOoTCYGexIZ2PtXZddWlYvH/muDa76Yo+xtOH1xkYuzSs/rLDJZTT+/LueCifWRoaKfJzlVnlXjpD3RAJvkp4ivg2+YFIra3SrTh+WEtaBwmoQUxgVdREq/x7aXQ6CGEwpWZZ/OVcpvbLi+ccdvW+OwYZRlqEEJjmFyAKc7dsTbX7KdPqhPGsXW5vxbzUfWyxg6/ed8cg3qRFCIF3Y+Mtmu3rNoYwrAH8uyBP9352Bt1Gf2uIJeJmt52ACXXzwLOjgsw2CCuQXqNJ3YUVGYc1h2rp6n0P4ttVwij98P6EKWYF0t1RrU4g5thVUWIIxFUszdN7L2JAfx0QWWdqxg7xGjwE84NMr28upED8zVNp2o2XLwnDyRwjhh6tEIEapA/ejolzGuRs/OSVkALxc80N+sVpBzSVdPW+T5zQ1OzY0xT94CIWY5kJ20q6jSEEc+j1evz13Cnt1OSt1BwDIH6wJhvlLstDxzsZk4haf3tIJQQUnR1YePRnTU5zgxBGgMShC4X9sDpm4CpRQpq+3VB8UfdWVhqdvjWB7hiEZhrrhYXBYaJRQx/p9xqhBOJXb6ixMiNFs7+mXAhyeYS+wwmNzeWkZfCRVZF9nzfX3V7bEMLTdlhRqZuYtIml5jCDhuZyMei890NEeXhhsq9/rwYRSq9xQ6PBX89naT/NzxbKCJB/sCzE6OwqI62Db7zdS64rIU3flrS1YnHafvZiawtpKcKms6tUjLZ2WqzuHkbKhuLlkMj7eg8hBeL/yD2t/dv5LB0jEDPzmrZ2lRjKtmLSOvjEm+Mn3TGHkKZv61WdePnYAU1mQ50QRoDCoLWtWIxOdRtpHXxhqESKV8NvVagV0j6qvVWlupXHU7RtN2+QlmJfdKnbxKitLyKtgy8sD4tykkmkggnE1SyLP2Ye1WwuLRCCXOGhqC+6tVDYqarAUJnDJ7BeEx3vLJSt6WebGvSL0vZrqjuvkZZiv9xgKm4ZpLHZ4Q2yMCiMs0TUltDdu318/pT2H7lnhOFkoXKTaUFzy7VbAWlTy2XSekjzVgz/6ps/SFm7ElOTt2qoOTigsbkUd/ZiKeoLSOshyTS/ANF4Tx/SMvrl+6J83dun0+k+Kq6oveWJWwZpaL5AWg9J3o2ZzNvskteYm1hy7KDmYE0FDcS5pKE5H3cMUlufT1oPKeSyoZghD+SlQdLqqg3HYGtVdC2XcxT1hk7j1oPBsDo0NJ0jrYkE9y4M8gU1y+K1E6naWQeTqDnIoIWi3uCHu4FpRXU2/IY/SlIV19gqEbUl5LY0Go7Bll+j67fEUNTl9GzivfvrWV51hqAkIiwLHW/VRNSW8ll+tjYheRs1B2nKqk73/OfdHqSmPouUHhJInZzxZvQkXvQetaoOrDx+WHO0roYG4nygtqEXgzS11KJTpcBQmZyULi6ZN3acyNuI8+a2Jrmy1FDWuZ25SVoKpYeyylM9/3l/gFpcepSEHhK8EzuZ6MKgimXw25Rkzfwj+6g5+ERjUx7a2q/2vLzfIIWlKSQ0cc2skYGiUHdPYu2fvFKri9m5kd1XTY/B8o6i0tR7X97/K1pcepxrPSRYE2NZImpzYbRawzHYT/LoVhHeUlSace/L+w2iUitRU3cCowIe51oXV0R7+mDaCNvXN3+Q0nYlFh/dz+a3NnPdNMVYGKYD5dXp9/7p4QflQsERLjVxzRvjH+V85mpraYEubvcP1Bx8p+hymmHR/B4eNkh+0XYuNXGJ1+AhWBQSwVnv0dClwnO/7NIsSz9ENxkKgbzCh579h2dyGpsVULbVwMN9FFe6uOJPUX3nurI2+6vLdCsyDmtb6TFYgaDXPxigo88a6Tl5P3IhiUtcxGIsD4u2+fBKzbL4/fHD2t+k7KXmEBLd5uhSqx/8c+8GyStM4kITl7wSEikyJhG1JVxqbdZP3rOZ3VBCa20Ijj6e+d4NUltfgKtKu9oC/1rkBJsuDH6ad0Y7NXmbpsThaonbAXq9GvkFe3p7q+8xeVbORltq4pL5Y0NF42y0MFjZ0Y4pe7Zo/ivnpO6GlgbigiS/MAldalVvb/VtkMycHQCu21IXV/whcoJNgvOkihLdhKSN7PmWRroiLmQys3/o662+HxyVWom8gmRbaeKKx4b7i6b0kYjaXDpZBguO7NMsOrqfTt8KHWVbCYrLMvt6u/8HJz1znS00cclrVu49MuoVupidG9jdlaW017AHjvX/jPf/8JRXZ6GxSbAJHcYOc8NvzahQ2xt6vR7/X/YJ7YwDO+gxWHuBYbqQk7e5v0sGfnhOZH9uTU1c8la0dc6bFymv6ifu2sT+H1prw77IvbQeKnW/FdYGfoCyzu6AStVgTV1cIBNLsCg4wuKFwS8vnNU+lrxFU6C8ah1hFL6gR2rGVwNdNLBBGFaHw+n/tJYqrrD0vPmVrk48ezBJ886ZDB0NxO2QnNztaGypG+gy44YgmTnrDeM1AfGnaPN37R5SVOomJG1ij9RV00DcXjmT+4kxlxlnEIZVIzN7vaWauGJBUJhopGyYyZ9TsyzeyDyqff7Qbq2S7qOyX8orT6KkvMSYS40PYg+n/w0MI4hc+2vMSER9urFeF71zA/ttYR4NxO2dn1PfNvZS4w2iUrfjZPan5mriiml+AaIoExNR/+VspvaJfT9qa1S0ZLzdU1a5G+XVucZebto06P7Ub6BS8Xo6591Y4xNR13Rew5P7ftT8Pfc07TUchX0pH5lyuWkG6Y5FDqWb1ACXhLp5YMZI4xJR/1RWpIveuZHNaqyngbijkJ27EZU1RsUePZi+kJaZsxaNTbysjPumEQuDHcxNzE/dp3nl2EGtWsNyI4xCHobpws+pfzb1Y6YbhGWBXQdeM/lzNsZ78BAsDul/YTC1tkoXtv17NrmK7qNyOA4d+/DehHDGYt5WjKKyTORd2mHWZ23E6pg4J4lT7/5QsyzeO52hnf3LLm3LDbvYwU8xhe4RT/qpb8z5qPl7lXYfXAOGeegMLwmkTs5YMi6qV3cUKlv0jyVvYT+/eJYG4o7KrgOrwLBacz5qvkGU7U1Iy/yH2Z+3IvPGjhN5DB7y0N//mZ+jfSx5q6aorZWILgoPKLqcjKKyE+Z+3LLdrinpn6Gx6ZJF97ACa2Li71sYbFZ34YVDuzXvZx/XXaf7qBwXhrmGH5P/aMktLDNId7e1ccdiw6F3QsySjxGFe3jdeb278rIu7Kf17C+KShqIOzpJB1YYRjoWYHmeqI7Oq3B2BoIDEy2+lxmsffxp51FDHxF1sQyWp/+i+ejcKR2jM2u4SbEnCi/vxe6DH1t6G+scR92f+gkUdZxXqIq5nYj6fEujPnrnRnZHRQntNSiAqqseP+z4vTVuJbLGTQz4esvx3qoLkEpdrXbPAdiY+Ixzdec1/V/PZ+m0euoNym3WbX4W+UVWScJuvVScKvU1KNtKERP5W6vdsx+cRSLUdXXqfywrptag3OXYyU9xLMtqRzOsm6u2vrEEXh5+CPCbYNX79oLecOqv11xfFEdFUXcG67a9bM1bWj+h2vbkNWhoMno7MYViFRimBeu2Lrb2ba1vEIZV45uN88AwdHWOwhV6rN2yAMp2hbVvbJt6Gd1C123pjkXoKh3F9uw7/BaKzV8t7w/b1ctoUSqgvt6EiHHP2qwNCiU7dz12H/yLrW5v24Iy1bW5GDzIGWNGTbNpOxTHpLwqBd9ttnrccS+2L2hZXJaBkLHh8HQPt3lbFMehta0Qn307C1qdTU+9cVPxNffiIQQFJsDDXc5JexT7RtmmwBdrZ0Gltnl+BG6KWjKsGv/aMButSs63o1DsjJtMHf61abotZqx6g7uC+t0m+WLdXMNqO4ViDgzTgW82PI/GJk7MAc6GWD1cv3Ed+YWbER2RCJch/py2TRE2DHMFX29IQEX1ZS6btd5mRVNwdxuK1Suz4eEeRKR9irDo7jm+3hCPiuoKrpvmtgfp4cYNBvmFOxAdMY32JJR+YZg6fL1hJiqqTcpnZS3IGASG4ZYaZy/8hMCRdHaL0jvKNgX+uTYRtVfKSEkgZxAYfh1YnL+YhLGB4+HpHkxUC4VftLYVGqZyryo5C8h7g6xButHqWJw5/xOGDR2KUQGTScuh8ICyqhTDIiAH6xwDQd4gPRSUHIFG24LQoJnEJg8o5MnOXW/YPmLjFXJj4d+DGB0xHUvn74JUKiMthcIher0OP6esRkqGWRkQbQX/DALD+fbReH3ZPni4h5GWQuEAhmkxnOew0ZZ1S+DPEOteVOp2ZOZshq/PGPj6RJCWQ7Ehiroz+Hzts6i9cpG0lN7gp0FwO3g/f3EPrl+vQVDgU3B2Nr9kLYWfpJ38FN9vexnXb/C2tB8/h1gPMtJ/HJbO3wpfn2jSUihWQNV1Bdv2vIoLhVZJzWNL+NuD3EtHZytOn9sCiRQYI6eHr4RM4eW9+J/vn0PtlULSUoxBGD3IvYQFT8SiuVvh4T6WtBSKCTBMB3YdWIHMnD2kpZiCMHqQe7mqbEBmzka4ujpD7j8FIpHwTO5oFF1Oxr82PofLFedISzEVYT9cvt4hWDj3S0MQT+Efjc3F2LV/lSX1OUgjbIP0EBczFy8+9wVkrn6kpVBuF8w8lP4h0jO/MbeyE1+wD4N0I5W44LkZb2Ja/NuQSl1Iy3FYsvM2Yv/hP0N5jfg+KmtgPwbpQebihd/M/gDxE1Z024a0HIehvHI39qZ8ZGodcr5jfwbpwddbjpmJHyEudiFAA3mbUV51EvtS3kFF9XnSUmyB/T847m5e+FXCe0iIW85l7RI7R4+c3O04k/cJSsrsqsd4EPs3SA8yFzfMSFyCyRPehszVm7QcQdIdfOcWrEdK+ldoaqkjLYcLHMcgPUglYsREvIjp01ZA7p9AWo4gaG0rQXrmOuTkbYZK3UFaDpc4nkHuRe4fiqlxryAudgkGSb1Iy+EXIjXyLyXhZM4PKC7NJK2GFI5tkB6kEieEh8xCXOxihIfMdNxYRa9HUWkq8gqTcKEgGSp1J2lFpKEGeRCpBAgfNwPR4S8gYtxsyFx9SUuyKQzTgaLSNOQXbkfR5VSo1MRq3vMRapCBGDs6FhEhMxEU+ASCDLXghf9v1ticj8LSVBSXZqC86hgYVkdaEl8R/pfNJa4uLggeMxXyEVMQFDgFcv84SKVDScsaAC0UdWdRXn0aivoslFWdQlu7XaxycwE1iKXI/cMh94/FSP/xhuPBfj7jIHMdRUTLTeYqGptLUVt/CQ0tF1Bbl4+a+nNgeZEgRJBQg9gCqUQCX58oQ/IJV1cv+PlEwdV1EDzdIgxHDHx9/CCVmrixUt+JhuYyw8OuUpdD2dYBZXsxVF3tUNQXorOrAm3tvD26KlT+XwAAAP//IXpGH9y2S5UAAAAASUVORK5CYII=;" vertex="1" parent="1">
          <mxGeometry x="527.5" y="380" width="30" height="30" as="geometry" />
        </mxCell>
        <mxCell id="V600r99K4r73Q4ow4gqZ-29" value="&lt;font face=&quot;Nunito&quot; data-font-src=&quot;https://fonts.googleapis.com/css?family=Nunito&quot;&gt;Auth&lt;/font&gt;&lt;div&gt;&lt;font face=&quot;Nunito&quot;&gt;Manager&lt;/font&gt;&lt;/div&gt;" style="rounded=1;whiteSpace=wrap;html=1;fillColor=#d5e8d4;strokeColor=#82b366;dashed=1;" vertex="1" parent="1">
          <mxGeometry x="290" y="220" width="100" height="60" as="geometry" />
        </mxCell>
        <mxCell id="V600r99K4r73Q4ow4gqZ-31" value="" style="shape=image;verticalLabelPosition=bottom;labelBackgroundColor=default;verticalAlign=top;aspect=fixed;imageAspect=0;image=https://www.pngkit.com/png/full/385-3854337_keycloak-logo-600px-keycloak-spring.png;" vertex="1" parent="1">
          <mxGeometry x="366" y="210" width="97.07" height="20" as="geometry" />
        </mxCell>
        <mxCell id="V600r99K4r73Q4ow4gqZ-32" value="" style="shape=image;verticalLabelPosition=bottom;labelBackgroundColor=default;verticalAlign=top;aspect=fixed;imageAspect=0;image=https://cdn.worldvectorlogo.com/logos/next-js.svg;" vertex="1" parent="1">
          <mxGeometry x="527.5" y="230" width="30" height="30" as="geometry" />
        </mxCell>
        <mxCell id="V600r99K4r73Q4ow4gqZ-33" value="" style="shape=image;verticalLabelPosition=bottom;labelBackgroundColor=default;verticalAlign=top;aspect=fixed;imageAspect=0;image=https://www.svgrepo.com/show/373924/nginx.svg;" vertex="1" parent="1">
          <mxGeometry x="630" y="260" width="40" height="40" as="geometry" />
        </mxCell>
        <mxCell id="V600r99K4r73Q4ow4gqZ-39" value="&lt;font face=&quot;Nunito&quot;&gt;Data Extractor&lt;/font&gt;" style="rounded=1;whiteSpace=wrap;html=1;fillColor=#d5e8d4;strokeColor=#82b366;dashed=1;" vertex="1" parent="1">
          <mxGeometry x="290" y="340" width="100" height="60" as="geometry" />
        </mxCell>
        <mxCell id="V600r99K4r73Q4ow4gqZ-40" value="" style="shape=image;verticalLabelPosition=bottom;labelBackgroundColor=default;verticalAlign=top;aspect=fixed;imageAspect=0;image=https://upload.wikimedia.org/wikipedia/commons/thumb/7/74/Apache_Tika_Logo.svg/1200px-Apache_Tika_Logo.svg.png;" vertex="1" parent="1">
          <mxGeometry x="370" y="327.5" width="56.07" height="20" as="geometry" />
        </mxCell>
        <mxCell id="V600r99K4r73Q4ow4gqZ-42" value="&lt;font face=&quot;Nunito&quot;&gt;NLP Indexer&lt;/font&gt;" style="rounded=1;whiteSpace=wrap;html=1;fillColor=#d5e8d4;strokeColor=#82b366;dashed=1;" vertex="1" parent="1">
          <mxGeometry x="290" y="440" width="100" height="60" as="geometry" />
        </mxCell>
        <mxCell id="V600r99K4r73Q4ow4gqZ-44" value="&#xa;" style="shape=image;verticalLabelPosition=bottom;labelBackgroundColor=default;verticalAlign=top;aspect=fixed;imageAspect=0;image=https://cdn.prod.website-files.com/62a8755be8bcc86e6307def8/645b98e5fd715675483a4100_Untitled-2.png;clipPath=inset(9.82% 70.67% 0.89% 0%);" vertex="1" parent="1">
          <mxGeometry x="370" y="420" width="35.2" height="40" as="geometry" />
        </mxCell>
        <mxCell id="V600r99K4r73Q4ow4gqZ-46" value="" style="shape=image;verticalLabelPosition=bottom;labelBackgroundColor=default;verticalAlign=top;aspect=fixed;imageAspect=0;image=https://cdn4.iconfinder.com/data/icons/logos-and-brands/512/97_Docker_logo_logos-512.png;" vertex="1" parent="1">
          <mxGeometry x="605" y="170" width="50" height="50" as="geometry" />
        </mxCell>
        <mxCell id="V600r99K4r73Q4ow4gqZ-47" value="&lt;h2&gt;&lt;font color=&quot;#999999&quot; data-font-src=&quot;https://fonts.googleapis.com/css?family=Nunito&quot; face=&quot;Nunito&quot;&gt;Odin Architecture&lt;/font&gt;&lt;/h2&gt;" style="text;html=1;align=center;verticalAlign=middle;whiteSpace=wrap;rounded=0;" vertex="1" parent="1">
          <mxGeometry x="400" y="170" width="160" height="30" as="geometry" />
        </mxCell>
        <mxCell id="V600r99K4r73Q4ow4gqZ-48" value="" style="shape=image;verticalLabelPosition=bottom;labelBackgroundColor=default;verticalAlign=top;aspect=fixed;imageAspect=0;image=https://upload.wikimedia.org/wikipedia/commons/thumb/2/29/Postgresql_elephant.svg/1200px-Postgresql_elephant.svg.png;" vertex="1" parent="1">
          <mxGeometry x="414" y="535" width="38.8" height="40" as="geometry" />
        </mxCell>
      </root>
    </mxGraphModel>
  </diagram>
</mxfile>
